<svg width="324" height="189" viewBox="0 0 324 189" fill="none" xmlns="http://www.w3.org/2000/svg">
<g filter="url(#filter0_d_64_248)">
<rect x="4" width="316" height="181" rx="32" fill="white"/>
<path d="M182.531 40.4894C182.152 40.1457 181.693 39.9251 181.206 39.8522C180.719 39.7793 180.224 39.8572 179.775 40.0769L170.306 44.6969C170.264 44.722 170.218 44.7376 170.171 44.7428C170.124 44.7481 170.076 44.7428 170.031 44.7275C169.985 44.7121 169.943 44.6869 169.907 44.6533C169.87 44.6197 169.84 44.5785 169.819 44.5319L164.287 33.6007C164.063 33.1488 163.732 32.7717 163.33 32.509C162.927 32.2463 162.468 32.1077 162 32.1077C161.532 32.1077 161.072 32.2463 160.67 32.509C160.267 32.7717 159.937 33.1488 159.712 33.6007L154.181 44.5319C154.159 44.5785 154.129 44.6197 154.093 44.6533C154.057 44.6869 154.014 44.7121 153.969 44.7275C153.924 44.7428 153.876 44.7481 153.828 44.7428C153.781 44.7376 153.735 44.722 153.694 44.6969L144.225 40.0769C143.778 39.8538 143.282 39.7732 142.795 39.8442C142.308 39.9153 141.849 40.1352 141.47 40.479C141.091 40.8228 140.808 41.2766 140.652 41.7889C140.496 42.3012 140.473 42.8514 140.587 43.3769L145.369 65.7138C145.45 66.0913 145.599 66.4468 145.809 66.7588C146.018 67.0707 146.283 67.3327 146.587 67.5288C146.988 67.7986 147.449 67.9413 147.919 67.9413C148.159 67.9389 148.398 67.9042 148.631 67.8382C157.372 65.1781 166.605 65.171 175.35 67.8176C175.691 67.9259 176.048 67.9569 176.401 67.9089C176.753 67.8608 177.093 67.7347 177.4 67.538C177.706 67.3413 177.974 67.0783 178.185 66.7647C178.397 66.4512 178.549 66.0937 178.631 65.7138L183.394 43.3769C183.513 42.8552 183.495 42.307 183.342 41.796C183.189 41.2849 182.908 40.8319 182.531 40.4894ZM181.219 42.7994L176.437 65.1363C176.412 65.2448 176.352 65.3398 176.269 65.4044C176.175 65.4543 176.07 65.4688 175.969 65.4457C166.827 62.668 157.172 62.668 148.031 65.4457C147.982 65.4611 147.93 65.4652 147.879 65.4577C147.829 65.4503 147.78 65.4315 147.736 65.4025C147.692 65.3736 147.654 65.335 147.624 65.2892C147.594 65.2434 147.573 65.1914 147.562 65.1363L142.781 42.7994C142.77 42.7378 142.772 42.6742 142.785 42.6132C142.799 42.5522 142.824 42.4952 142.86 42.4462C142.896 42.3971 142.941 42.3572 142.992 42.3292C143.043 42.3011 143.099 42.2857 143.156 42.2838L143.306 42.3251L152.794 46.9657C153.392 47.2621 154.07 47.2993 154.692 47.0699C155.314 46.8405 155.835 46.3613 156.15 45.7282L161.681 34.7969C161.711 34.7318 161.756 34.677 161.812 34.6387C161.869 34.6004 161.934 34.5801 162 34.5801C162.066 34.5801 162.131 34.6004 162.187 34.6387C162.244 34.677 162.289 34.7318 162.319 34.7969L167.85 45.7282C168.165 46.3613 168.686 46.8405 169.308 47.0699C169.93 47.2993 170.608 47.2621 171.206 46.9657L180.694 42.3251C180.758 42.2937 180.829 42.2829 180.899 42.2938C180.968 42.3048 181.034 42.3371 181.087 42.3869C181.142 42.4353 181.183 42.4996 181.207 42.5725C181.23 42.6454 181.234 42.7241 181.219 42.7994ZM169.125 58.4744C169.093 58.779 168.961 59.0602 168.754 59.2653C168.547 59.4704 168.279 59.5852 168 59.5882H167.887C163.972 59.1551 160.027 59.1551 156.112 59.5882C155.817 59.6229 155.52 59.5274 155.288 59.3226C155.057 59.1177 154.908 58.8202 154.875 58.4951C154.848 58.1676 154.94 57.8419 155.129 57.5875C155.318 57.3331 155.59 57.1703 155.887 57.1338C159.951 56.6594 164.049 56.6594 168.112 57.1338C168.406 57.1703 168.675 57.3302 168.864 57.58C169.053 57.8299 169.146 58.1504 169.125 58.4744Z" fill="#2B7FFF"/>
<path d="M66.4541 95.7051V97.085H59.5283V95.7051H66.4541ZM59.792 90.2031V103H58.0957V90.2031H59.792ZM67.9307 90.2031V103H66.2432V90.2031H67.9307ZM76.3066 101.374V96.4785C76.3066 96.1035 76.2305 95.7783 76.0781 95.5029C75.9316 95.2217 75.709 95.0049 75.4102 94.8525C75.1113 94.7002 74.7422 94.624 74.3027 94.624C73.8926 94.624 73.5322 94.6943 73.2217 94.835C72.917 94.9756 72.6768 95.1602 72.501 95.3887C72.3311 95.6172 72.2461 95.8633 72.2461 96.127H70.6201C70.6201 95.7871 70.708 95.4502 70.8838 95.1162C71.0596 94.7822 71.3115 94.4805 71.6396 94.2109C71.9736 93.9355 72.3721 93.7188 72.835 93.5605C73.3037 93.3965 73.8252 93.3145 74.3994 93.3145C75.0908 93.3145 75.7002 93.4316 76.2275 93.666C76.7607 93.9004 77.1768 94.2549 77.4756 94.7295C77.7803 95.1982 77.9326 95.7871 77.9326 96.4961V100.926C77.9326 101.242 77.959 101.579 78.0117 101.937C78.0703 102.294 78.1553 102.602 78.2666 102.859V103H76.5703C76.4883 102.812 76.4238 102.563 76.377 102.253C76.3301 101.937 76.3066 101.644 76.3066 101.374ZM76.5879 97.2344L76.6055 98.377H74.9619C74.499 98.377 74.0859 98.415 73.7227 98.4912C73.3594 98.5615 73.0547 98.6699 72.8086 98.8164C72.5625 98.9629 72.375 99.1475 72.2461 99.3701C72.1172 99.5869 72.0527 99.8418 72.0527 100.135C72.0527 100.434 72.1201 100.706 72.2549 100.952C72.3896 101.198 72.5918 101.395 72.8613 101.541C73.1367 101.682 73.4736 101.752 73.8721 101.752C74.3701 101.752 74.8096 101.646 75.1904 101.436C75.5713 101.225 75.873 100.967 76.0957 100.662C76.3242 100.357 76.4473 100.062 76.4648 99.7744L77.1592 100.557C77.1182 100.803 77.0068 101.075 76.8252 101.374C76.6436 101.673 76.4004 101.96 76.0957 102.235C75.7969 102.505 75.4395 102.73 75.0234 102.912C74.6133 103.088 74.1504 103.176 73.6348 103.176C72.9902 103.176 72.4248 103.05 71.9385 102.798C71.458 102.546 71.083 102.209 70.8135 101.787C70.5498 101.359 70.418 100.882 70.418 100.354C70.418 99.8447 70.5176 99.3965 70.7168 99.0098C70.916 98.6172 71.2031 98.292 71.5781 98.0342C71.9531 97.7705 72.4043 97.5713 72.9316 97.4365C73.459 97.3018 74.0479 97.2344 74.6982 97.2344H76.5879ZM80.6309 93.4902H82.2568V101.664H85.7373V93.4902H87.3721V101.664H90.8438V93.4902H92.4697V103H80.6309V93.4902ZM100.67 101.374V96.4785C100.67 96.1035 100.594 95.7783 100.441 95.5029C100.295 95.2217 100.072 95.0049 99.7734 94.8525C99.4746 94.7002 99.1055 94.624 98.666 94.624C98.2559 94.624 97.8955 94.6943 97.585 94.835C97.2803 94.9756 97.04 95.1602 96.8643 95.3887C96.6943 95.6172 96.6094 95.8633 96.6094 96.127H94.9834C94.9834 95.7871 95.0713 95.4502 95.2471 95.1162C95.4229 94.7822 95.6748 94.4805 96.0029 94.2109C96.3369 93.9355 96.7354 93.7188 97.1982 93.5605C97.667 93.3965 98.1885 93.3145 98.7627 93.3145C99.4541 93.3145 100.063 93.4316 100.591 93.666C101.124 93.9004 101.54 94.2549 101.839 94.7295C102.144 95.1982 102.296 95.7871 102.296 96.4961V100.926C102.296 101.242 102.322 101.579 102.375 101.937C102.434 102.294 102.519 102.602 102.63 102.859V103H100.934C100.852 102.812 100.787 102.563 100.74 102.253C100.693 101.937 100.67 101.644 100.67 101.374ZM100.951 97.2344L100.969 98.377H99.3252C98.8623 98.377 98.4492 98.415 98.0859 98.4912C97.7227 98.5615 97.418 98.6699 97.1719 98.8164C96.9258 98.9629 96.7383 99.1475 96.6094 99.3701C96.4805 99.5869 96.416 99.8418 96.416 100.135C96.416 100.434 96.4834 100.706 96.6182 100.952C96.7529 101.198 96.9551 101.395 97.2246 101.541C97.5 101.682 97.8369 101.752 98.2354 101.752C98.7334 101.752 99.1729 101.646 99.5537 101.436C99.9346 101.225 100.236 100.967 100.459 100.662C100.688 100.357 100.811 100.062 100.828 99.7744L101.522 100.557C101.481 100.803 101.37 101.075 101.188 101.374C101.007 101.673 100.764 101.96 100.459 102.235C100.16 102.505 99.8027 102.73 99.3867 102.912C98.9766 103.088 98.5137 103.176 97.998 103.176C97.3535 103.176 96.7881 103.05 96.3018 102.798C95.8213 102.546 95.4463 102.209 95.1768 101.787C94.9131 101.359 94.7812 100.882 94.7812 100.354C94.7812 99.8447 94.8809 99.3965 95.0801 99.0098C95.2793 98.6172 95.5664 98.292 95.9414 98.0342C96.3164 97.7705 96.7676 97.5713 97.2949 97.4365C97.8223 97.3018 98.4111 97.2344 99.0615 97.2344H100.951ZM114.785 100.838L118.02 93.4902H119.584L115.348 103H114.223L110.004 93.4902H111.568L114.785 100.838ZM111.094 93.4902V103H109.468V93.4902H111.094ZM118.424 103V93.4902H120.059V103H118.424ZM126.624 103.176C125.962 103.176 125.361 103.064 124.822 102.842C124.289 102.613 123.829 102.294 123.442 101.884C123.062 101.474 122.769 100.987 122.563 100.425C122.358 99.8623 122.256 99.2471 122.256 98.5791V98.21C122.256 97.4365 122.37 96.748 122.599 96.1445C122.827 95.5352 123.138 95.0195 123.53 94.5977C123.923 94.1758 124.368 93.8564 124.866 93.6396C125.364 93.4229 125.88 93.3145 126.413 93.3145C127.093 93.3145 127.679 93.4316 128.171 93.666C128.669 93.9004 129.076 94.2285 129.393 94.6504C129.709 95.0664 129.943 95.5586 130.096 96.127C130.248 96.6895 130.324 97.3047 130.324 97.9727V98.7021H123.223V97.375H128.698V97.252C128.675 96.8301 128.587 96.4199 128.435 96.0215C128.288 95.623 128.054 95.2949 127.731 95.0371C127.409 94.7793 126.97 94.6504 126.413 94.6504C126.044 94.6504 125.704 94.7295 125.394 94.8877C125.083 95.04 124.816 95.2686 124.594 95.5732C124.371 95.8779 124.198 96.25 124.075 96.6895C123.952 97.1289 123.891 97.6357 123.891 98.21V98.5791C123.891 99.0303 123.952 99.4551 124.075 99.8535C124.204 100.246 124.389 100.592 124.629 100.891C124.875 101.189 125.171 101.424 125.517 101.594C125.868 101.764 126.267 101.849 126.712 101.849C127.286 101.849 127.772 101.731 128.171 101.497C128.569 101.263 128.918 100.949 129.217 100.557L130.201 101.339C129.996 101.649 129.735 101.945 129.419 102.227C129.103 102.508 128.713 102.736 128.25 102.912C127.793 103.088 127.251 103.176 126.624 103.176ZM135.993 93.4902V103H134.358V93.4902H135.993ZM139.184 93.4902V94.8086H131.229V93.4902H139.184ZM146.25 101.374V96.4785C146.25 96.1035 146.174 95.7783 146.021 95.5029C145.875 95.2217 145.652 95.0049 145.354 94.8525C145.055 94.7002 144.686 94.624 144.246 94.624C143.836 94.624 143.476 94.6943 143.165 94.835C142.86 94.9756 142.62 95.1602 142.444 95.3887C142.274 95.6172 142.189 95.8633 142.189 96.127H140.563C140.563 95.7871 140.651 95.4502 140.827 95.1162C141.003 94.7822 141.255 94.4805 141.583 94.2109C141.917 93.9355 142.315 93.7188 142.778 93.5605C143.247 93.3965 143.769 93.3145 144.343 93.3145C145.034 93.3145 145.644 93.4316 146.171 93.666C146.704 93.9004 147.12 94.2549 147.419 94.7295C147.724 95.1982 147.876 95.7871 147.876 96.4961V100.926C147.876 101.242 147.902 101.579 147.955 101.937C148.014 102.294 148.099 102.602 148.21 102.859V103H146.514C146.432 102.812 146.367 102.563 146.32 102.253C146.273 101.937 146.25 101.644 146.25 101.374ZM146.531 97.2344L146.549 98.377H144.905C144.442 98.377 144.029 98.415 143.666 98.4912C143.303 98.5615 142.998 98.6699 142.752 98.8164C142.506 98.9629 142.318 99.1475 142.189 99.3701C142.061 99.5869 141.996 99.8418 141.996 100.135C141.996 100.434 142.063 100.706 142.198 100.952C142.333 101.198 142.535 101.395 142.805 101.541C143.08 101.682 143.417 101.752 143.815 101.752C144.313 101.752 144.753 101.646 145.134 101.436C145.515 101.225 145.816 100.967 146.039 100.662C146.268 100.357 146.391 100.062 146.408 99.7744L147.103 100.557C147.062 100.803 146.95 101.075 146.769 101.374C146.587 101.673 146.344 101.96 146.039 102.235C145.74 102.505 145.383 102.73 144.967 102.912C144.557 103.088 144.094 103.176 143.578 103.176C142.934 103.176 142.368 103.05 141.882 102.798C141.401 102.546 141.026 102.209 140.757 101.787C140.493 101.359 140.361 100.882 140.361 100.354C140.361 99.8447 140.461 99.3965 140.66 99.0098C140.859 98.6172 141.146 98.292 141.521 98.0342C141.896 97.7705 142.348 97.5713 142.875 97.4365C143.402 97.3018 143.991 97.2344 144.642 97.2344H146.531ZM158.282 96.8916V98.2275H153.993V96.8916H158.282ZM170.675 93.4902V94.835H165.867V93.4902H170.675ZM166.104 93.4902V103H164.479V93.4902H166.104ZM172.116 93.4902V103H170.481V93.4902H172.116ZM176.493 93.4902V103H174.858V93.4902H176.493ZM174.735 90.9678C174.735 90.7041 174.814 90.4814 174.973 90.2998C175.137 90.1182 175.377 90.0273 175.693 90.0273C176.004 90.0273 176.241 90.1182 176.405 90.2998C176.575 90.4814 176.66 90.7041 176.66 90.9678C176.66 91.2197 176.575 91.4365 176.405 91.6182C176.241 91.7939 176.004 91.8818 175.693 91.8818C175.377 91.8818 175.137 91.7939 174.973 91.6182C174.814 91.4365 174.735 91.2197 174.735 90.9678ZM180.817 93.4902H182.443L182.303 97.0498C182.268 97.9521 182.165 98.7314 181.995 99.3877C181.825 100.044 181.608 100.604 181.345 101.066C181.081 101.523 180.785 101.907 180.457 102.218C180.135 102.528 179.801 102.789 179.455 103H178.646L178.69 101.673L179.024 101.664C179.218 101.436 179.405 101.201 179.587 100.961C179.769 100.715 179.936 100.425 180.088 100.091C180.24 99.751 180.366 99.3379 180.466 98.8516C180.571 98.3594 180.639 97.7588 180.668 97.0498L180.817 93.4902ZM181.222 93.4902H186.943V103H185.317V94.9932H181.222V93.4902ZM178.277 101.664H188.165V105.804H186.539V103H179.903V105.804H178.269L178.277 101.664ZM191.733 93.4902V103H190.107V93.4902H191.733ZM197.974 93.4902L193.465 98.9395H191.188L190.942 97.5156H192.806L195.996 93.4902H197.974ZM196.225 103L192.727 98.6934L193.772 97.5156L198.29 103H196.225ZM201.331 95.3184V106.656H199.696V93.4902H201.19L201.331 95.3184ZM207.738 98.166V98.3506C207.738 99.042 207.656 99.6836 207.492 100.275C207.328 100.861 207.088 101.371 206.771 101.805C206.461 102.238 206.077 102.575 205.62 102.815C205.163 103.056 204.639 103.176 204.047 103.176C203.443 103.176 202.91 103.076 202.447 102.877C201.984 102.678 201.592 102.388 201.27 102.007C200.947 101.626 200.689 101.169 200.496 100.636C200.309 100.103 200.18 99.502 200.109 98.834V97.8496C200.18 97.1465 200.312 96.5166 200.505 95.96C200.698 95.4033 200.953 94.9287 201.27 94.5361C201.592 94.1377 201.981 93.8359 202.438 93.6309C202.896 93.4199 203.423 93.3145 204.021 93.3145C204.618 93.3145 205.148 93.4316 205.611 93.666C206.074 93.8945 206.464 94.2227 206.78 94.6504C207.097 95.0781 207.334 95.5908 207.492 96.1885C207.656 96.7803 207.738 97.4395 207.738 98.166ZM206.104 98.3506V98.166C206.104 97.6914 206.054 97.2461 205.954 96.8301C205.854 96.4082 205.699 96.0391 205.488 95.7227C205.283 95.4004 205.02 95.1484 204.697 94.9668C204.375 94.7793 203.991 94.6855 203.546 94.6855C203.136 94.6855 202.778 94.7559 202.474 94.8965C202.175 95.0371 201.92 95.2275 201.709 95.4678C201.498 95.7021 201.325 95.9717 201.19 96.2764C201.062 96.5752 200.965 96.8857 200.9 97.208V99.4844C201.018 99.8945 201.182 100.281 201.393 100.645C201.604 101.002 201.885 101.292 202.236 101.515C202.588 101.731 203.03 101.84 203.563 101.84C204.003 101.84 204.381 101.749 204.697 101.567C205.02 101.38 205.283 101.125 205.488 100.803C205.699 100.48 205.854 100.111 205.954 99.6953C206.054 99.2734 206.104 98.8252 206.104 98.3506ZM213.759 103.176C213.097 103.176 212.496 103.064 211.957 102.842C211.424 102.613 210.964 102.294 210.577 101.884C210.196 101.474 209.903 100.987 209.698 100.425C209.493 99.8623 209.391 99.2471 209.391 98.5791V98.21C209.391 97.4365 209.505 96.748 209.733 96.1445C209.962 95.5352 210.272 95.0195 210.665 94.5977C211.058 94.1758 211.503 93.8564 212.001 93.6396C212.499 93.4229 213.015 93.3145 213.548 93.3145C214.228 93.3145 214.813 93.4316 215.306 93.666C215.804 93.9004 216.211 94.2285 216.527 94.6504C216.844 95.0664 217.078 95.5586 217.23 96.127C217.383 96.6895 217.459 97.3047 217.459 97.9727V98.7021H210.357V97.375H215.833V97.252C215.81 96.8301 215.722 96.4199 215.569 96.0215C215.423 95.623 215.188 95.2949 214.866 95.0371C214.544 94.7793 214.104 94.6504 213.548 94.6504C213.179 94.6504 212.839 94.7295 212.528 94.8877C212.218 95.04 211.951 95.2686 211.729 95.5732C211.506 95.8779 211.333 96.25 211.21 96.6895C211.087 97.1289 211.025 97.6357 211.025 98.21V98.5791C211.025 99.0303 211.087 99.4551 211.21 99.8535C211.339 100.246 211.523 100.592 211.764 100.891C212.01 101.189 212.306 101.424 212.651 101.594C213.003 101.764 213.401 101.849 213.847 101.849C214.421 101.849 214.907 101.731 215.306 101.497C215.704 101.263 216.053 100.949 216.352 100.557L217.336 101.339C217.131 101.649 216.87 101.945 216.554 102.227C216.237 102.508 215.848 102.736 215.385 102.912C214.928 103.088 214.386 103.176 213.759 103.176ZM223.163 101.84C223.55 101.84 223.907 101.761 224.235 101.603C224.563 101.444 224.833 101.228 225.044 100.952C225.255 100.671 225.375 100.352 225.404 99.9941H226.951C226.922 100.557 226.731 101.081 226.38 101.567C226.034 102.048 225.58 102.438 225.018 102.736C224.455 103.029 223.837 103.176 223.163 103.176C222.448 103.176 221.824 103.05 221.291 102.798C220.764 102.546 220.324 102.2 219.973 101.761C219.627 101.321 219.366 100.817 219.19 100.249C219.021 99.6748 218.936 99.0684 218.936 98.4297V98.0605C218.936 97.4219 219.021 96.8184 219.19 96.25C219.366 95.6758 219.627 95.1689 219.973 94.7295C220.324 94.29 220.764 93.9443 221.291 93.6924C221.824 93.4404 222.448 93.3145 223.163 93.3145C223.907 93.3145 224.558 93.4668 225.114 93.7715C225.671 94.0703 226.107 94.4805 226.424 95.002C226.746 95.5176 226.922 96.1035 226.951 96.7598H225.404C225.375 96.3672 225.264 96.0127 225.07 95.6963C224.883 95.3799 224.625 95.1279 224.297 94.9404C223.975 94.7471 223.597 94.6504 223.163 94.6504C222.665 94.6504 222.246 94.75 221.906 94.9492C221.572 95.1426 221.306 95.4062 221.106 95.7402C220.913 96.0684 220.772 96.4346 220.685 96.8389C220.603 97.2373 220.562 97.6445 220.562 98.0605V98.4297C220.562 98.8457 220.603 99.2559 220.685 99.6602C220.767 100.064 220.904 100.431 221.098 100.759C221.297 101.087 221.563 101.351 221.897 101.55C222.237 101.743 222.659 101.84 223.163 101.84ZM235.134 93.4902V94.835H230.537V93.4902H235.134ZM236.566 93.4902V103H234.94V93.4902H236.566ZM230.142 93.4902H231.776L231.53 98.0781C231.489 98.7871 231.422 99.4141 231.328 99.959C231.24 100.498 231.117 100.961 230.959 101.348C230.807 101.734 230.613 102.051 230.379 102.297C230.15 102.537 229.875 102.716 229.553 102.833C229.23 102.944 228.858 103 228.437 103H227.927V101.567L228.278 101.541C228.53 101.523 228.744 101.465 228.92 101.365C229.102 101.266 229.254 101.119 229.377 100.926C229.5 100.727 229.6 100.472 229.676 100.161C229.758 99.8506 229.819 99.4814 229.86 99.0537C229.907 98.626 229.942 98.1279 229.966 97.5596L230.142 93.4902ZM240.943 100.425L245.329 93.4902H246.964V103H245.329V96.0654L240.943 103H239.326V93.4902H240.943V100.425ZM253.45 93.4902V103H251.815V93.4902H253.45ZM256.641 93.4902V94.8086H248.687V93.4902H256.641ZM259.998 100.425L264.384 93.4902H266.019V103H264.384V96.0654L259.998 103H258.381V93.4902H259.998V100.425ZM72.6855 117.49V118.835H67.8779V117.49H72.6855ZM68.1152 117.49V127H66.4893V117.49H68.1152ZM74.127 117.49V127H72.4922V117.49H74.127ZM80.6836 127.176C80.0215 127.176 79.4209 127.064 78.8818 126.842C78.3486 126.613 77.8887 126.294 77.502 125.884C77.1211 125.474 76.8281 124.987 76.623 124.425C76.418 123.862 76.3154 123.247 76.3154 122.579V122.21C76.3154 121.437 76.4297 120.748 76.6582 120.145C76.8867 119.535 77.1973 119.02 77.5898 118.598C77.9824 118.176 78.4277 117.856 78.9258 117.64C79.4238 117.423 79.9395 117.314 80.4727 117.314C81.1523 117.314 81.7383 117.432 82.2305 117.666C82.7285 117.9 83.1357 118.229 83.4521 118.65C83.7686 119.066 84.0029 119.559 84.1553 120.127C84.3076 120.689 84.3838 121.305 84.3838 121.973V122.702H77.2822V121.375H82.7578V121.252C82.7344 120.83 82.6465 120.42 82.4941 120.021C82.3477 119.623 82.1133 119.295 81.791 119.037C81.4688 118.779 81.0293 118.65 80.4727 118.65C80.1035 118.65 79.7637 118.729 79.4531 118.888C79.1426 119.04 78.876 119.269 78.6533 119.573C78.4307 119.878 78.2578 120.25 78.1348 120.689C78.0117 121.129 77.9502 121.636 77.9502 122.21V122.579C77.9502 123.03 78.0117 123.455 78.1348 123.854C78.2637 124.246 78.4482 124.592 78.6885 124.891C78.9346 125.189 79.2305 125.424 79.5762 125.594C79.9277 125.764 80.3262 125.849 80.7715 125.849C81.3457 125.849 81.832 125.731 82.2305 125.497C82.6289 125.263 82.9775 124.949 83.2764 124.557L84.2607 125.339C84.0557 125.649 83.7949 125.945 83.4785 126.227C83.1621 126.508 82.7725 126.736 82.3096 126.912C81.8525 127.088 81.3105 127.176 80.6836 127.176ZM87.9082 119.318V130.656H86.2734V117.49H87.7676L87.9082 119.318ZM94.3154 122.166V122.351C94.3154 123.042 94.2334 123.684 94.0693 124.275C93.9053 124.861 93.665 125.371 93.3486 125.805C93.0381 126.238 92.6543 126.575 92.1973 126.815C91.7402 127.056 91.2158 127.176 90.624 127.176C90.0205 127.176 89.4873 127.076 89.0244 126.877C88.5615 126.678 88.1689 126.388 87.8467 126.007C87.5244 125.626 87.2666 125.169 87.0732 124.636C86.8857 124.103 86.7568 123.502 86.6865 122.834V121.85C86.7568 121.146 86.8887 120.517 87.082 119.96C87.2754 119.403 87.5303 118.929 87.8467 118.536C88.1689 118.138 88.5586 117.836 89.0156 117.631C89.4727 117.42 90 117.314 90.5977 117.314C91.1953 117.314 91.7256 117.432 92.1885 117.666C92.6514 117.895 93.041 118.223 93.3574 118.65C93.6738 119.078 93.9111 119.591 94.0693 120.188C94.2334 120.78 94.3154 121.439 94.3154 122.166ZM92.6807 122.351V122.166C92.6807 121.691 92.6309 121.246 92.5312 120.83C92.4316 120.408 92.2764 120.039 92.0654 119.723C91.8604 119.4 91.5967 119.148 91.2744 118.967C90.9521 118.779 90.5684 118.686 90.123 118.686C89.7129 118.686 89.3555 118.756 89.0508 118.896C88.752 119.037 88.4971 119.228 88.2861 119.468C88.0752 119.702 87.9023 119.972 87.7676 120.276C87.6387 120.575 87.542 120.886 87.4775 121.208V123.484C87.5947 123.895 87.7588 124.281 87.9697 124.645C88.1807 125.002 88.4619 125.292 88.8135 125.515C89.165 125.731 89.6074 125.84 90.1406 125.84C90.5801 125.84 90.958 125.749 91.2744 125.567C91.5967 125.38 91.8604 125.125 92.0654 124.803C92.2764 124.48 92.4316 124.111 92.5312 123.695C92.6309 123.273 92.6807 122.825 92.6807 122.351ZM100.336 127.176C99.6738 127.176 99.0732 127.064 98.5342 126.842C98.001 126.613 97.541 126.294 97.1543 125.884C96.7734 125.474 96.4805 124.987 96.2754 124.425C96.0703 123.862 95.9678 123.247 95.9678 122.579V122.21C95.9678 121.437 96.082 120.748 96.3105 120.145C96.5391 119.535 96.8496 119.02 97.2422 118.598C97.6348 118.176 98.0801 117.856 98.5781 117.64C99.0762 117.423 99.5918 117.314 100.125 117.314C100.805 117.314 101.391 117.432 101.883 117.666C102.381 117.9 102.788 118.229 103.104 118.65C103.421 119.066 103.655 119.559 103.808 120.127C103.96 120.689 104.036 121.305 104.036 121.973V122.702H96.9346V121.375H102.41V121.252C102.387 120.83 102.299 120.42 102.146 120.021C102 119.623 101.766 119.295 101.443 119.037C101.121 118.779 100.682 118.65 100.125 118.65C99.7559 118.65 99.416 118.729 99.1055 118.888C98.7949 119.04 98.5283 119.269 98.3057 119.573C98.083 119.878 97.9102 120.25 97.7871 120.689C97.6641 121.129 97.6025 121.636 97.6025 122.21V122.579C97.6025 123.03 97.6641 123.455 97.7871 123.854C97.916 124.246 98.1006 124.592 98.3408 124.891C98.5869 125.189 98.8828 125.424 99.2285 125.594C99.5801 125.764 99.9785 125.849 100.424 125.849C100.998 125.849 101.484 125.731 101.883 125.497C102.281 125.263 102.63 124.949 102.929 124.557L103.913 125.339C103.708 125.649 103.447 125.945 103.131 126.227C102.814 126.508 102.425 126.736 101.962 126.912C101.505 127.088 100.963 127.176 100.336 127.176ZM110.399 122.816H107.279L107.262 121.516H109.811C110.314 121.516 110.733 121.466 111.067 121.366C111.407 121.267 111.662 121.117 111.832 120.918C112.002 120.719 112.087 120.473 112.087 120.18C112.087 119.951 112.037 119.752 111.938 119.582C111.844 119.406 111.7 119.263 111.507 119.151C111.313 119.034 111.073 118.949 110.786 118.896C110.505 118.838 110.174 118.809 109.793 118.809H107.71V127H106.084V117.49H109.793C110.396 117.49 110.938 117.543 111.419 117.648C111.905 117.754 112.318 117.915 112.658 118.132C113.004 118.343 113.268 118.612 113.449 118.94C113.631 119.269 113.722 119.655 113.722 120.101C113.722 120.388 113.663 120.66 113.546 120.918C113.429 121.176 113.256 121.404 113.027 121.604C112.799 121.803 112.518 121.967 112.184 122.096C111.85 122.219 111.466 122.298 111.032 122.333L110.399 122.816ZM110.399 127H106.69L107.499 125.682H110.399C110.851 125.682 111.226 125.626 111.524 125.515C111.823 125.397 112.046 125.233 112.192 125.022C112.345 124.806 112.421 124.548 112.421 124.249C112.421 123.95 112.345 123.695 112.192 123.484C112.046 123.268 111.823 123.104 111.524 122.992C111.226 122.875 110.851 122.816 110.399 122.816H107.93L107.947 121.516H111.032L111.621 122.008C112.143 122.049 112.585 122.178 112.948 122.395C113.312 122.611 113.587 122.887 113.774 123.221C113.962 123.549 114.056 123.906 114.056 124.293C114.056 124.738 113.971 125.131 113.801 125.471C113.637 125.811 113.396 126.095 113.08 126.323C112.764 126.546 112.38 126.716 111.929 126.833C111.478 126.944 110.968 127 110.399 127ZM121.843 125.374V120.479C121.843 120.104 121.767 119.778 121.614 119.503C121.468 119.222 121.245 119.005 120.946 118.853C120.647 118.7 120.278 118.624 119.839 118.624C119.429 118.624 119.068 118.694 118.758 118.835C118.453 118.976 118.213 119.16 118.037 119.389C117.867 119.617 117.782 119.863 117.782 120.127H116.156C116.156 119.787 116.244 119.45 116.42 119.116C116.596 118.782 116.848 118.48 117.176 118.211C117.51 117.936 117.908 117.719 118.371 117.561C118.84 117.396 119.361 117.314 119.936 117.314C120.627 117.314 121.236 117.432 121.764 117.666C122.297 117.9 122.713 118.255 123.012 118.729C123.316 119.198 123.469 119.787 123.469 120.496V124.926C123.469 125.242 123.495 125.579 123.548 125.937C123.606 126.294 123.691 126.602 123.803 126.859V127H122.106C122.024 126.812 121.96 126.563 121.913 126.253C121.866 125.937 121.843 125.644 121.843 125.374ZM122.124 121.234L122.142 122.377H120.498C120.035 122.377 119.622 122.415 119.259 122.491C118.896 122.562 118.591 122.67 118.345 122.816C118.099 122.963 117.911 123.147 117.782 123.37C117.653 123.587 117.589 123.842 117.589 124.135C117.589 124.434 117.656 124.706 117.791 124.952C117.926 125.198 118.128 125.395 118.397 125.541C118.673 125.682 119.01 125.752 119.408 125.752C119.906 125.752 120.346 125.646 120.727 125.436C121.107 125.225 121.409 124.967 121.632 124.662C121.86 124.357 121.983 124.062 122.001 123.774L122.695 124.557C122.654 124.803 122.543 125.075 122.361 125.374C122.18 125.673 121.937 125.96 121.632 126.235C121.333 126.505 120.976 126.73 120.56 126.912C120.149 127.088 119.687 127.176 119.171 127.176C118.526 127.176 117.961 127.05 117.475 126.798C116.994 126.546 116.619 126.209 116.35 125.787C116.086 125.359 115.954 124.882 115.954 124.354C115.954 123.845 116.054 123.396 116.253 123.01C116.452 122.617 116.739 122.292 117.114 122.034C117.489 121.771 117.94 121.571 118.468 121.437C118.995 121.302 119.584 121.234 120.234 121.234H122.124ZM132.17 117.49V118.835H127.775V127H126.149V117.49H132.17ZM135.343 124.425L139.729 117.49H141.363V127H139.729V120.065L135.343 127H133.726V117.49H135.343V124.425ZM152.314 117.49V127H150.68V117.49H152.314ZM155.505 117.49V118.809H147.551V117.49H155.505ZM162.571 125.374V120.479C162.571 120.104 162.495 119.778 162.343 119.503C162.196 119.222 161.974 119.005 161.675 118.853C161.376 118.7 161.007 118.624 160.567 118.624C160.157 118.624 159.797 118.694 159.486 118.835C159.182 118.976 158.941 119.16 158.766 119.389C158.596 119.617 158.511 119.863 158.511 120.127H156.885C156.885 119.787 156.973 119.45 157.148 119.116C157.324 118.782 157.576 118.48 157.904 118.211C158.238 117.936 158.637 117.719 159.1 117.561C159.568 117.396 160.09 117.314 160.664 117.314C161.355 117.314 161.965 117.432 162.492 117.666C163.025 117.9 163.441 118.255 163.74 118.729C164.045 119.198 164.197 119.787 164.197 120.496V124.926C164.197 125.242 164.224 125.579 164.276 125.937C164.335 126.294 164.42 126.602 164.531 126.859V127H162.835C162.753 126.812 162.688 126.563 162.642 126.253C162.595 125.937 162.571 125.644 162.571 125.374ZM162.853 121.234L162.87 122.377H161.227C160.764 122.377 160.351 122.415 159.987 122.491C159.624 122.562 159.319 122.67 159.073 122.816C158.827 122.963 158.64 123.147 158.511 123.37C158.382 123.587 158.317 123.842 158.317 124.135C158.317 124.434 158.385 124.706 158.52 124.952C158.654 125.198 158.856 125.395 159.126 125.541C159.401 125.682 159.738 125.752 160.137 125.752C160.635 125.752 161.074 125.646 161.455 125.436C161.836 125.225 162.138 124.967 162.36 124.662C162.589 124.357 162.712 124.062 162.729 123.774L163.424 124.557C163.383 124.803 163.271 125.075 163.09 125.374C162.908 125.673 162.665 125.96 162.36 126.235C162.062 126.505 161.704 126.73 161.288 126.912C160.878 127.088 160.415 127.176 159.899 127.176C159.255 127.176 158.689 127.05 158.203 126.798C157.723 126.546 157.348 126.209 157.078 125.787C156.814 125.359 156.683 124.882 156.683 124.354C156.683 123.845 156.782 123.396 156.981 123.01C157.181 122.617 157.468 122.292 157.843 122.034C158.218 121.771 158.669 121.571 159.196 121.437C159.724 121.302 160.312 121.234 160.963 121.234H162.853ZM177.557 117.49V118.835H172.749V117.49H177.557ZM172.986 117.49V127H171.36V117.49H172.986ZM178.998 117.49V127H177.363V117.49H178.998ZM183.234 119.318V130.656H181.6V117.49H183.094L183.234 119.318ZM189.642 122.166V122.351C189.642 123.042 189.56 123.684 189.396 124.275C189.231 124.861 188.991 125.371 188.675 125.805C188.364 126.238 187.98 126.575 187.523 126.815C187.066 127.056 186.542 127.176 185.95 127.176C185.347 127.176 184.813 127.076 184.351 126.877C183.888 126.678 183.495 126.388 183.173 126.007C182.851 125.626 182.593 125.169 182.399 124.636C182.212 124.103 182.083 123.502 182.013 122.834V121.85C182.083 121.146 182.215 120.517 182.408 119.96C182.602 119.403 182.856 118.929 183.173 118.536C183.495 118.138 183.885 117.836 184.342 117.631C184.799 117.42 185.326 117.314 185.924 117.314C186.521 117.314 187.052 117.432 187.515 117.666C187.978 117.895 188.367 118.223 188.684 118.65C189 119.078 189.237 119.591 189.396 120.188C189.56 120.78 189.642 121.439 189.642 122.166ZM188.007 122.351V122.166C188.007 121.691 187.957 121.246 187.857 120.83C187.758 120.408 187.603 120.039 187.392 119.723C187.187 119.4 186.923 119.148 186.601 118.967C186.278 118.779 185.895 118.686 185.449 118.686C185.039 118.686 184.682 118.756 184.377 118.896C184.078 119.037 183.823 119.228 183.612 119.468C183.401 119.702 183.229 119.972 183.094 120.276C182.965 120.575 182.868 120.886 182.804 121.208V123.484C182.921 123.895 183.085 124.281 183.296 124.645C183.507 125.002 183.788 125.292 184.14 125.515C184.491 125.731 184.934 125.84 185.467 125.84C185.906 125.84 186.284 125.749 186.601 125.567C186.923 125.38 187.187 125.125 187.392 124.803C187.603 124.48 187.758 124.111 187.857 123.695C187.957 123.273 188.007 122.825 188.007 122.351ZM193.474 124.425L197.859 117.49H199.494V127H197.859V120.065L193.474 127H191.856V117.49H193.474V124.425ZM203.203 117.49L205.286 120.953L207.396 117.49H209.303L206.191 122.184L209.399 127H207.519L205.321 123.432L203.124 127H201.234L204.434 122.184L201.331 117.49H203.203ZM210.428 122.351V122.148C210.428 121.463 210.527 120.827 210.727 120.241C210.926 119.649 211.213 119.137 211.588 118.703C211.963 118.264 212.417 117.924 212.95 117.684C213.483 117.438 214.081 117.314 214.743 117.314C215.411 117.314 216.012 117.438 216.545 117.684C217.084 117.924 217.541 118.264 217.916 118.703C218.297 119.137 218.587 119.649 218.786 120.241C218.985 120.827 219.085 121.463 219.085 122.148V122.351C219.085 123.036 218.985 123.672 218.786 124.258C218.587 124.844 218.297 125.356 217.916 125.796C217.541 126.229 217.087 126.569 216.554 126.815C216.026 127.056 215.429 127.176 214.761 127.176C214.093 127.176 213.492 127.056 212.959 126.815C212.426 126.569 211.969 126.229 211.588 125.796C211.213 125.356 210.926 124.844 210.727 124.258C210.527 123.672 210.428 123.036 210.428 122.351ZM212.054 122.148V122.351C212.054 122.825 212.109 123.273 212.221 123.695C212.332 124.111 212.499 124.48 212.722 124.803C212.95 125.125 213.234 125.38 213.574 125.567C213.914 125.749 214.31 125.84 214.761 125.84C215.206 125.84 215.596 125.749 215.93 125.567C216.27 125.38 216.551 125.125 216.773 124.803C216.996 124.48 217.163 124.111 217.274 123.695C217.392 123.273 217.45 122.825 217.45 122.351V122.148C217.45 121.68 217.392 121.237 217.274 120.821C217.163 120.399 216.993 120.027 216.765 119.705C216.542 119.377 216.261 119.119 215.921 118.932C215.587 118.744 215.194 118.65 214.743 118.65C214.298 118.65 213.905 118.744 213.565 118.932C213.231 119.119 212.95 119.377 212.722 119.705C212.499 120.027 212.332 120.399 212.221 120.821C212.109 121.237 212.054 121.68 212.054 122.148ZM225.589 122.816H222.469L222.451 121.516H225C225.504 121.516 225.923 121.466 226.257 121.366C226.597 121.267 226.852 121.117 227.021 120.918C227.191 120.719 227.276 120.473 227.276 120.18C227.276 119.951 227.227 119.752 227.127 119.582C227.033 119.406 226.89 119.263 226.696 119.151C226.503 119.034 226.263 118.949 225.976 118.896C225.694 118.838 225.363 118.809 224.982 118.809H222.899V127H221.273V117.49H224.982C225.586 117.49 226.128 117.543 226.608 117.648C227.095 117.754 227.508 117.915 227.848 118.132C228.193 118.343 228.457 118.612 228.639 118.94C228.82 119.269 228.911 119.655 228.911 120.101C228.911 120.388 228.853 120.66 228.735 120.918C228.618 121.176 228.445 121.404 228.217 121.604C227.988 121.803 227.707 121.967 227.373 122.096C227.039 122.219 226.655 122.298 226.222 122.333L225.589 122.816ZM225.589 127H221.88L222.688 125.682H225.589C226.04 125.682 226.415 125.626 226.714 125.515C227.013 125.397 227.235 125.233 227.382 125.022C227.534 124.806 227.61 124.548 227.61 124.249C227.61 123.95 227.534 123.695 227.382 123.484C227.235 123.268 227.013 123.104 226.714 122.992C226.415 122.875 226.04 122.816 225.589 122.816H223.119L223.137 121.516H226.222L226.811 122.008C227.332 122.049 227.774 122.178 228.138 122.395C228.501 122.611 228.776 122.887 228.964 123.221C229.151 123.549 229.245 123.906 229.245 124.293C229.245 124.738 229.16 125.131 228.99 125.471C228.826 125.811 228.586 126.095 228.27 126.323C227.953 126.546 227.569 126.716 227.118 126.833C226.667 126.944 226.157 127 225.589 127ZM237.032 125.374V120.479C237.032 120.104 236.956 119.778 236.804 119.503C236.657 119.222 236.435 119.005 236.136 118.853C235.837 118.7 235.468 118.624 235.028 118.624C234.618 118.624 234.258 118.694 233.947 118.835C233.643 118.976 233.402 119.16 233.227 119.389C233.057 119.617 232.972 119.863 232.972 120.127H231.346C231.346 119.787 231.434 119.45 231.609 119.116C231.785 118.782 232.037 118.48 232.365 118.211C232.699 117.936 233.098 117.719 233.561 117.561C234.029 117.396 234.551 117.314 235.125 117.314C235.816 117.314 236.426 117.432 236.953 117.666C237.486 117.9 237.902 118.255 238.201 118.729C238.506 119.198 238.658 119.787 238.658 120.496V124.926C238.658 125.242 238.685 125.579 238.737 125.937C238.796 126.294 238.881 126.602 238.992 126.859V127H237.296C237.214 126.812 237.149 126.563 237.103 126.253C237.056 125.937 237.032 125.644 237.032 125.374ZM237.313 121.234L237.331 122.377H235.688C235.225 122.377 234.812 122.415 234.448 122.491C234.085 122.562 233.78 122.67 233.534 122.816C233.288 122.963 233.101 123.147 232.972 123.37C232.843 123.587 232.778 123.842 232.778 124.135C232.778 124.434 232.846 124.706 232.98 124.952C233.115 125.198 233.317 125.395 233.587 125.541C233.862 125.682 234.199 125.752 234.598 125.752C235.096 125.752 235.535 125.646 235.916 125.436C236.297 125.225 236.599 124.967 236.821 124.662C237.05 124.357 237.173 124.062 237.19 123.774L237.885 124.557C237.844 124.803 237.732 125.075 237.551 125.374C237.369 125.673 237.126 125.96 236.821 126.235C236.522 126.505 236.165 126.73 235.749 126.912C235.339 127.088 234.876 127.176 234.36 127.176C233.716 127.176 233.15 127.05 232.664 126.798C232.184 126.546 231.809 126.209 231.539 125.787C231.275 125.359 231.144 124.882 231.144 124.354C231.144 123.845 231.243 123.396 231.442 123.01C231.642 122.617 231.929 122.292 232.304 122.034C232.679 121.771 233.13 121.571 233.657 121.437C234.185 121.302 234.773 121.234 235.424 121.234H237.313ZM244.951 117.49V127H243.316V117.49H244.951ZM248.142 117.49V118.809H240.188V117.49H248.142ZM251.499 124.425L255.885 117.49H257.52V127H255.885V120.065L251.499 127H249.882V117.49H251.499V124.425ZM58.834 145.612V146.931H53.8066V145.612H58.834ZM54.1494 141.49V151H52.5234V141.49H54.1494ZM60.1523 141.49V151H58.5176V141.49H60.1523ZM66.7178 151.176C66.0557 151.176 65.4551 151.064 64.916 150.842C64.3828 150.613 63.9229 150.294 63.5361 149.884C63.1553 149.474 62.8623 148.987 62.6572 148.425C62.4521 147.862 62.3496 147.247 62.3496 146.579V146.21C62.3496 145.437 62.4639 144.748 62.6924 144.145C62.9209 143.535 63.2314 143.02 63.624 142.598C64.0166 142.176 64.4619 141.856 64.96 141.64C65.458 141.423 65.9736 141.314 66.5068 141.314C67.1865 141.314 67.7725 141.432 68.2646 141.666C68.7627 141.9 69.1699 142.229 69.4863 142.65C69.8027 143.066 70.0371 143.559 70.1895 144.127C70.3418 144.689 70.418 145.305 70.418 145.973V146.702H63.3164V145.375H68.792V145.252C68.7686 144.83 68.6807 144.42 68.5283 144.021C68.3818 143.623 68.1475 143.295 67.8252 143.037C67.5029 142.779 67.0635 142.65 66.5068 142.65C66.1377 142.65 65.7979 142.729 65.4873 142.888C65.1768 143.04 64.9102 143.269 64.6875 143.573C64.4648 143.878 64.292 144.25 64.1689 144.689C64.0459 145.129 63.9844 145.636 63.9844 146.21V146.579C63.9844 147.03 64.0459 147.455 64.1689 147.854C64.2979 148.246 64.4824 148.592 64.7227 148.891C64.9688 149.189 65.2646 149.424 65.6104 149.594C65.9619 149.764 66.3604 149.849 66.8057 149.849C67.3799 149.849 67.8662 149.731 68.2646 149.497C68.6631 149.263 69.0117 148.949 69.3105 148.557L70.2949 149.339C70.0898 149.649 69.8291 149.945 69.5127 150.227C69.1963 150.508 68.8066 150.736 68.3438 150.912C67.8867 151.088 67.3447 151.176 66.7178 151.176ZM74.0303 141.49H75.6562L75.5156 145.05C75.4805 145.952 75.3779 146.731 75.208 147.388C75.0381 148.044 74.8213 148.604 74.5576 149.066C74.2939 149.523 73.998 149.907 73.6699 150.218C73.3477 150.528 73.0137 150.789 72.668 151H71.8594L71.9033 149.673L72.2373 149.664C72.4307 149.436 72.6182 149.201 72.7998 148.961C72.9814 148.715 73.1484 148.425 73.3008 148.091C73.4531 147.751 73.5791 147.338 73.6787 146.852C73.7842 146.359 73.8516 145.759 73.8809 145.05L74.0303 141.49ZM74.4346 141.49H80.1562V151H78.5303V142.993H74.4346V141.49ZM71.4902 149.664H81.3779V153.804H79.752V151H73.1162V153.804H71.4814L71.4902 149.664ZM82.749 146.351V146.148C82.749 145.463 82.8486 144.827 83.0479 144.241C83.2471 143.649 83.5342 143.137 83.9092 142.703C84.2842 142.264 84.7383 141.924 85.2715 141.684C85.8047 141.438 86.4023 141.314 87.0645 141.314C87.7324 141.314 88.333 141.438 88.8662 141.684C89.4053 141.924 89.8623 142.264 90.2373 142.703C90.6182 143.137 90.9082 143.649 91.1074 144.241C91.3066 144.827 91.4062 145.463 91.4062 146.148V146.351C91.4062 147.036 91.3066 147.672 91.1074 148.258C90.9082 148.844 90.6182 149.356 90.2373 149.796C89.8623 150.229 89.4082 150.569 88.875 150.815C88.3477 151.056 87.75 151.176 87.082 151.176C86.4141 151.176 85.8135 151.056 85.2803 150.815C84.7471 150.569 84.29 150.229 83.9092 149.796C83.5342 149.356 83.2471 148.844 83.0479 148.258C82.8486 147.672 82.749 147.036 82.749 146.351ZM84.375 146.148V146.351C84.375 146.825 84.4307 147.273 84.542 147.695C84.6533 148.111 84.8203 148.48 85.043 148.803C85.2715 149.125 85.5557 149.38 85.8955 149.567C86.2354 149.749 86.6309 149.84 87.082 149.84C87.5273 149.84 87.917 149.749 88.251 149.567C88.5908 149.38 88.8721 149.125 89.0947 148.803C89.3174 148.48 89.4844 148.111 89.5957 147.695C89.7129 147.273 89.7715 146.825 89.7715 146.351V146.148C89.7715 145.68 89.7129 145.237 89.5957 144.821C89.4844 144.399 89.3145 144.027 89.0859 143.705C88.8633 143.377 88.582 143.119 88.2422 142.932C87.9082 142.744 87.5156 142.65 87.0645 142.65C86.6191 142.65 86.2266 142.744 85.8867 142.932C85.5527 143.119 85.2715 143.377 85.043 143.705C84.8203 144.027 84.6533 144.399 84.542 144.821C84.4307 145.237 84.375 145.68 84.375 146.148ZM99.6592 141.49V142.835H95.0625V141.49H99.6592ZM101.092 141.49V151H99.4658V141.49H101.092ZM94.667 141.49H96.3018L96.0557 146.078C96.0146 146.787 95.9473 147.414 95.8535 147.959C95.7656 148.498 95.6426 148.961 95.4844 149.348C95.332 149.734 95.1387 150.051 94.9043 150.297C94.6758 150.537 94.4004 150.716 94.0781 150.833C93.7559 150.944 93.3838 151 92.9619 151H92.4521V149.567L92.8037 149.541C93.0557 149.523 93.2695 149.465 93.4453 149.365C93.627 149.266 93.7793 149.119 93.9023 148.926C94.0254 148.727 94.125 148.472 94.2012 148.161C94.2832 147.851 94.3447 147.481 94.3857 147.054C94.4326 146.626 94.4678 146.128 94.4912 145.56L94.667 141.49ZM105.478 141.49V151H103.843V141.49H105.478ZM103.72 138.968C103.72 138.704 103.799 138.481 103.957 138.3C104.121 138.118 104.361 138.027 104.678 138.027C104.988 138.027 105.226 138.118 105.39 138.3C105.56 138.481 105.645 138.704 105.645 138.968C105.645 139.22 105.56 139.437 105.39 139.618C105.226 139.794 104.988 139.882 104.678 139.882C104.361 139.882 104.121 139.794 103.957 139.618C103.799 139.437 103.72 139.22 103.72 138.968ZM109.854 141.49V151H108.229V141.49H109.854ZM116.095 141.49L111.586 146.939H109.31L109.063 145.516H110.927L114.117 141.49H116.095ZM114.346 151L110.848 146.693L111.894 145.516L116.411 151H114.346ZM119.584 148.425L123.97 141.49H125.604V151H123.97V144.065L119.584 151H117.967V141.49H119.584V148.425ZM129.691 149.066V150.376C129.691 150.909 129.557 151.472 129.287 152.063C129.018 152.661 128.64 153.159 128.153 153.558L127.23 152.916C127.418 152.658 127.576 152.395 127.705 152.125C127.834 151.861 127.931 151.586 127.995 151.299C128.065 151.018 128.101 150.719 128.101 150.402V149.066H129.691ZM141.838 149.374V144.479C141.838 144.104 141.762 143.778 141.609 143.503C141.463 143.222 141.24 143.005 140.941 142.853C140.643 142.7 140.273 142.624 139.834 142.624C139.424 142.624 139.063 142.694 138.753 142.835C138.448 142.976 138.208 143.16 138.032 143.389C137.862 143.617 137.777 143.863 137.777 144.127H136.151C136.151 143.787 136.239 143.45 136.415 143.116C136.591 142.782 136.843 142.48 137.171 142.211C137.505 141.936 137.903 141.719 138.366 141.561C138.835 141.396 139.356 141.314 139.931 141.314C140.622 141.314 141.231 141.432 141.759 141.666C142.292 141.9 142.708 142.255 143.007 142.729C143.312 143.198 143.464 143.787 143.464 144.496V148.926C143.464 149.242 143.49 149.579 143.543 149.937C143.602 150.294 143.687 150.602 143.798 150.859V151H142.102C142.02 150.812 141.955 150.563 141.908 150.253C141.861 149.937 141.838 149.644 141.838 149.374ZM142.119 145.234L142.137 146.377H140.493C140.03 146.377 139.617 146.415 139.254 146.491C138.891 146.562 138.586 146.67 138.34 146.816C138.094 146.963 137.906 147.147 137.777 147.37C137.648 147.587 137.584 147.842 137.584 148.135C137.584 148.434 137.651 148.706 137.786 148.952C137.921 149.198 138.123 149.395 138.393 149.541C138.668 149.682 139.005 149.752 139.403 149.752C139.901 149.752 140.341 149.646 140.722 149.436C141.103 149.225 141.404 148.967 141.627 148.662C141.855 148.357 141.979 148.062 141.996 147.774L142.69 148.557C142.649 148.803 142.538 149.075 142.356 149.374C142.175 149.673 141.932 149.96 141.627 150.235C141.328 150.505 140.971 150.73 140.555 150.912C140.145 151.088 139.682 151.176 139.166 151.176C138.521 151.176 137.956 151.05 137.47 150.798C136.989 150.546 136.614 150.209 136.345 149.787C136.081 149.359 135.949 148.882 135.949 148.354C135.949 147.845 136.049 147.396 136.248 147.01C136.447 146.617 136.734 146.292 137.109 146.034C137.484 145.771 137.936 145.571 138.463 145.437C138.99 145.302 139.579 145.234 140.229 145.234H142.119ZM156.938 145.612V146.931H151.91V145.612H156.938ZM152.253 141.49V151H150.627V141.49H152.253ZM158.256 141.49V151H156.621V141.49H158.256ZM164.821 151.176C164.159 151.176 163.559 151.064 163.02 150.842C162.486 150.613 162.026 150.294 161.64 149.884C161.259 149.474 160.966 148.987 160.761 148.425C160.556 147.862 160.453 147.247 160.453 146.579V146.21C160.453 145.437 160.567 144.748 160.796 144.145C161.024 143.535 161.335 143.02 161.728 142.598C162.12 142.176 162.565 141.856 163.063 141.64C163.562 141.423 164.077 141.314 164.61 141.314C165.29 141.314 165.876 141.432 166.368 141.666C166.866 141.9 167.273 142.229 167.59 142.65C167.906 143.066 168.141 143.559 168.293 144.127C168.445 144.689 168.521 145.305 168.521 145.973V146.702H161.42V145.375H166.896V145.252C166.872 144.83 166.784 144.42 166.632 144.021C166.485 143.623 166.251 143.295 165.929 143.037C165.606 142.779 165.167 142.65 164.61 142.65C164.241 142.65 163.901 142.729 163.591 142.888C163.28 143.04 163.014 143.269 162.791 143.573C162.568 143.878 162.396 144.25 162.272 144.689C162.149 145.129 162.088 145.636 162.088 146.21V146.579C162.088 147.03 162.149 147.455 162.272 147.854C162.401 148.246 162.586 148.592 162.826 148.891C163.072 149.189 163.368 149.424 163.714 149.594C164.065 149.764 164.464 149.849 164.909 149.849C165.483 149.849 165.97 149.731 166.368 149.497C166.767 149.263 167.115 148.949 167.414 148.557L168.398 149.339C168.193 149.649 167.933 149.945 167.616 150.227C167.3 150.508 166.91 150.736 166.447 150.912C165.99 151.088 165.448 151.176 164.821 151.176ZM181.222 141.49V142.835H176.414V141.49H181.222ZM176.651 141.49V151H175.025V141.49H176.651ZM182.663 141.49V151H181.028V141.49H182.663ZM189.22 151.176C188.558 151.176 187.957 151.064 187.418 150.842C186.885 150.613 186.425 150.294 186.038 149.884C185.657 149.474 185.364 148.987 185.159 148.425C184.954 147.862 184.852 147.247 184.852 146.579V146.21C184.852 145.437 184.966 144.748 185.194 144.145C185.423 143.535 185.733 143.02 186.126 142.598C186.519 142.176 186.964 141.856 187.462 141.64C187.96 141.423 188.476 141.314 189.009 141.314C189.688 141.314 190.274 141.432 190.767 141.666C191.265 141.9 191.672 142.229 191.988 142.65C192.305 143.066 192.539 143.559 192.691 144.127C192.844 144.689 192.92 145.305 192.92 145.973V146.702H185.818V145.375H191.294V145.252C191.271 144.83 191.183 144.42 191.03 144.021C190.884 143.623 190.649 143.295 190.327 143.037C190.005 142.779 189.565 142.65 189.009 142.65C188.64 142.65 188.3 142.729 187.989 142.888C187.679 143.04 187.412 143.269 187.189 143.573C186.967 143.878 186.794 144.25 186.671 144.689C186.548 145.129 186.486 145.636 186.486 146.21V146.579C186.486 147.03 186.548 147.455 186.671 147.854C186.8 148.246 186.984 148.592 187.225 148.891C187.471 149.189 187.767 149.424 188.112 149.594C188.464 149.764 188.862 149.849 189.308 149.849C189.882 149.849 190.368 149.731 190.767 149.497C191.165 149.263 191.514 148.949 191.812 148.557L192.797 149.339C192.592 149.649 192.331 149.945 192.015 150.227C191.698 150.508 191.309 150.736 190.846 150.912C190.389 151.088 189.847 151.176 189.22 151.176ZM196.444 143.318V154.656H194.81V141.49H196.304L196.444 143.318ZM202.852 146.166V146.351C202.852 147.042 202.77 147.684 202.605 148.275C202.441 148.861 202.201 149.371 201.885 149.805C201.574 150.238 201.19 150.575 200.733 150.815C200.276 151.056 199.752 151.176 199.16 151.176C198.557 151.176 198.023 151.076 197.561 150.877C197.098 150.678 196.705 150.388 196.383 150.007C196.061 149.626 195.803 149.169 195.609 148.636C195.422 148.103 195.293 147.502 195.223 146.834V145.85C195.293 145.146 195.425 144.517 195.618 143.96C195.812 143.403 196.066 142.929 196.383 142.536C196.705 142.138 197.095 141.836 197.552 141.631C198.009 141.42 198.536 141.314 199.134 141.314C199.731 141.314 200.262 141.432 200.725 141.666C201.188 141.895 201.577 142.223 201.894 142.65C202.21 143.078 202.447 143.591 202.605 144.188C202.77 144.78 202.852 145.439 202.852 146.166ZM201.217 146.351V146.166C201.217 145.691 201.167 145.246 201.067 144.83C200.968 144.408 200.812 144.039 200.602 143.723C200.396 143.4 200.133 143.148 199.811 142.967C199.488 142.779 199.104 142.686 198.659 142.686C198.249 142.686 197.892 142.756 197.587 142.896C197.288 143.037 197.033 143.228 196.822 143.468C196.611 143.702 196.438 143.972 196.304 144.276C196.175 144.575 196.078 144.886 196.014 145.208V147.484C196.131 147.895 196.295 148.281 196.506 148.645C196.717 149.002 196.998 149.292 197.35 149.515C197.701 149.731 198.144 149.84 198.677 149.84C199.116 149.84 199.494 149.749 199.811 149.567C200.133 149.38 200.396 149.125 200.602 148.803C200.812 148.48 200.968 148.111 201.067 147.695C201.167 147.273 201.217 146.825 201.217 146.351ZM208.872 151.176C208.21 151.176 207.609 151.064 207.07 150.842C206.537 150.613 206.077 150.294 205.69 149.884C205.31 149.474 205.017 148.987 204.812 148.425C204.606 147.862 204.504 147.247 204.504 146.579V146.21C204.504 145.437 204.618 144.748 204.847 144.145C205.075 143.535 205.386 143.02 205.778 142.598C206.171 142.176 206.616 141.856 207.114 141.64C207.612 141.423 208.128 141.314 208.661 141.314C209.341 141.314 209.927 141.432 210.419 141.666C210.917 141.9 211.324 142.229 211.641 142.65C211.957 143.066 212.191 143.559 212.344 144.127C212.496 144.689 212.572 145.305 212.572 145.973V146.702H205.471V145.375H210.946V145.252C210.923 144.83 210.835 144.42 210.683 144.021C210.536 143.623 210.302 143.295 209.979 143.037C209.657 142.779 209.218 142.65 208.661 142.65C208.292 142.65 207.952 142.729 207.642 142.888C207.331 143.04 207.064 143.269 206.842 143.573C206.619 143.878 206.446 144.25 206.323 144.689C206.2 145.129 206.139 145.636 206.139 146.21V146.579C206.139 147.03 206.2 147.455 206.323 147.854C206.452 148.246 206.637 148.592 206.877 148.891C207.123 149.189 207.419 149.424 207.765 149.594C208.116 149.764 208.515 149.849 208.96 149.849C209.534 149.849 210.021 149.731 210.419 149.497C210.817 149.263 211.166 148.949 211.465 148.557L212.449 149.339C212.244 149.649 211.983 149.945 211.667 150.227C211.351 150.508 210.961 150.736 210.498 150.912C210.041 151.088 209.499 151.176 208.872 151.176ZM216.097 143.318V154.656H214.462V141.49H215.956L216.097 143.318ZM222.504 146.166V146.351C222.504 147.042 222.422 147.684 222.258 148.275C222.094 148.861 221.854 149.371 221.537 149.805C221.227 150.238 220.843 150.575 220.386 150.815C219.929 151.056 219.404 151.176 218.812 151.176C218.209 151.176 217.676 151.076 217.213 150.877C216.75 150.678 216.357 150.388 216.035 150.007C215.713 149.626 215.455 149.169 215.262 148.636C215.074 148.103 214.945 147.502 214.875 146.834V145.85C214.945 145.146 215.077 144.517 215.271 143.96C215.464 143.403 215.719 142.929 216.035 142.536C216.357 142.138 216.747 141.836 217.204 141.631C217.661 141.42 218.188 141.314 218.786 141.314C219.384 141.314 219.914 141.432 220.377 141.666C220.84 141.895 221.229 142.223 221.546 142.65C221.862 143.078 222.1 143.591 222.258 144.188C222.422 144.78 222.504 145.439 222.504 146.166ZM220.869 146.351V146.166C220.869 145.691 220.819 145.246 220.72 144.83C220.62 144.408 220.465 144.039 220.254 143.723C220.049 143.4 219.785 143.148 219.463 142.967C219.141 142.779 218.757 142.686 218.312 142.686C217.901 142.686 217.544 142.756 217.239 142.896C216.94 143.037 216.686 143.228 216.475 143.468C216.264 143.702 216.091 143.972 215.956 144.276C215.827 144.575 215.73 144.886 215.666 145.208V147.484C215.783 147.895 215.947 148.281 216.158 148.645C216.369 149.002 216.65 149.292 217.002 149.515C217.354 149.731 217.796 149.84 218.329 149.84C218.769 149.84 219.146 149.749 219.463 149.567C219.785 149.38 220.049 149.125 220.254 148.803C220.465 148.48 220.62 148.111 220.72 147.695C220.819 147.273 220.869 146.825 220.869 146.351ZM224.147 146.351V146.148C224.147 145.463 224.247 144.827 224.446 144.241C224.646 143.649 224.933 143.137 225.308 142.703C225.683 142.264 226.137 141.924 226.67 141.684C227.203 141.438 227.801 141.314 228.463 141.314C229.131 141.314 229.731 141.438 230.265 141.684C230.804 141.924 231.261 142.264 231.636 142.703C232.017 143.137 232.307 143.649 232.506 144.241C232.705 144.827 232.805 145.463 232.805 146.148V146.351C232.805 147.036 232.705 147.672 232.506 148.258C232.307 148.844 232.017 149.356 231.636 149.796C231.261 150.229 230.807 150.569 230.273 150.815C229.746 151.056 229.148 151.176 228.48 151.176C227.812 151.176 227.212 151.056 226.679 150.815C226.146 150.569 225.688 150.229 225.308 149.796C224.933 149.356 224.646 148.844 224.446 148.258C224.247 147.672 224.147 147.036 224.147 146.351ZM225.773 146.148V146.351C225.773 146.825 225.829 147.273 225.94 147.695C226.052 148.111 226.219 148.48 226.441 148.803C226.67 149.125 226.954 149.38 227.294 149.567C227.634 149.749 228.029 149.84 228.48 149.84C228.926 149.84 229.315 149.749 229.649 149.567C229.989 149.38 230.271 149.125 230.493 148.803C230.716 148.48 230.883 148.111 230.994 147.695C231.111 147.273 231.17 146.825 231.17 146.351V146.148C231.17 145.68 231.111 145.237 230.994 144.821C230.883 144.399 230.713 144.027 230.484 143.705C230.262 143.377 229.98 143.119 229.641 142.932C229.307 142.744 228.914 142.65 228.463 142.65C228.018 142.65 227.625 142.744 227.285 142.932C226.951 143.119 226.67 143.377 226.441 143.705C226.219 144.027 226.052 144.399 225.94 144.821C225.829 145.237 225.773 145.68 225.773 146.148ZM240.943 137.351H242.279C242.279 137.925 242.191 138.382 242.016 138.722C241.84 139.056 241.6 139.313 241.295 139.495C240.996 139.677 240.656 139.814 240.275 139.908C239.9 140.002 239.511 140.093 239.106 140.181C238.603 140.286 238.134 140.453 237.7 140.682C237.272 140.904 236.903 141.221 236.593 141.631C236.288 142.041 236.062 142.574 235.916 143.23C235.775 143.887 235.737 144.698 235.802 145.665V146.474H234.466V145.665C234.466 144.581 234.568 143.635 234.773 142.826C234.984 142.018 235.28 141.335 235.661 140.778C236.042 140.222 236.493 139.779 237.015 139.451C237.542 139.123 238.122 138.897 238.755 138.774C239.212 138.687 239.604 138.593 239.933 138.493C240.261 138.388 240.51 138.247 240.68 138.071C240.855 137.896 240.943 137.655 240.943 137.351ZM239.019 142.035C239.64 142.035 240.193 142.144 240.68 142.36C241.166 142.577 241.579 142.879 241.919 143.266C242.259 143.652 242.517 144.109 242.692 144.637C242.874 145.158 242.965 145.727 242.965 146.342V146.535C242.965 147.197 242.868 147.812 242.675 148.381C242.487 148.943 242.209 149.436 241.84 149.857C241.477 150.273 241.031 150.599 240.504 150.833C239.982 151.067 239.388 151.185 238.72 151.185C238.052 151.185 237.454 151.067 236.927 150.833C236.405 150.599 235.96 150.273 235.591 149.857C235.222 149.436 234.94 148.943 234.747 148.381C234.56 147.812 234.466 147.197 234.466 146.535V146.342C234.466 146.195 234.492 146.052 234.545 145.911C234.598 145.771 234.662 145.627 234.738 145.48C234.82 145.334 234.894 145.179 234.958 145.015C235.175 144.487 235.471 143.998 235.846 143.547C236.227 143.096 236.681 142.732 237.208 142.457C237.741 142.176 238.345 142.035 239.019 142.035ZM238.702 143.362C238.104 143.362 237.612 143.5 237.226 143.775C236.845 144.051 236.561 144.417 236.373 144.874C236.186 145.325 236.092 145.814 236.092 146.342V146.535C236.092 146.98 236.145 147.402 236.25 147.801C236.355 148.199 236.514 148.554 236.725 148.864C236.941 149.169 237.214 149.409 237.542 149.585C237.876 149.761 238.269 149.849 238.72 149.849C239.171 149.849 239.561 149.761 239.889 149.585C240.217 149.409 240.486 149.169 240.697 148.864C240.908 148.554 241.066 148.199 241.172 147.801C241.277 147.402 241.33 146.98 241.33 146.535V146.342C241.33 145.943 241.277 145.565 241.172 145.208C241.066 144.851 240.905 144.534 240.688 144.259C240.478 143.983 240.205 143.767 239.871 143.608C239.543 143.444 239.153 143.362 238.702 143.362ZM246.41 148.425L250.796 141.49H252.431V151H250.796V144.065L246.41 151H244.793V141.49H246.41V148.425ZM258.917 141.49V151H257.282V141.49H258.917ZM262.107 141.49V142.809H254.153V141.49H262.107ZM265.465 148.425L269.851 141.49H271.485V151H269.851V144.065L265.465 151H263.848V141.49H265.465V148.425Z" fill="black"/>
</g>
<defs>
<filter id="filter0_d_64_248" x="0" y="0" width="324" height="189" filterUnits="userSpaceOnUse" color-interpolation-filters="sRGB">
<feFlood flood-opacity="0" result="BackgroundImageFix"/>
<feColorMatrix in="SourceAlpha" type="matrix" values="0 0 0 0 0 0 0 0 0 0 0 0 0 0 0 0 0 0 127 0" result="hardAlpha"/>
<feOffset dy="4"/>
<feGaussianBlur stdDeviation="2"/>
<feComposite in2="hardAlpha" operator="out"/>
<feColorMatrix type="matrix" values="0 0 0 0 0.657708 0 0 0 0 0.778207 0 0 0 0 0.9625 0 0 0 0.38 0"/>
<feBlend mode="normal" in2="BackgroundImageFix" result="effect1_dropShadow_64_248"/>
<feBlend mode="normal" in="SourceGraphic" in2="effect1_dropShadow_64_248" result="shape"/>
</filter>
</defs>
</svg>
